<svg width="509" height="326" viewBox="0 0 509 326" fill="none" xmlns="http://www.w3.org/2000/svg">
<path d="M136.4 154.8C143.067 153.467 147.733 153.067 150.4 153.6C153.067 153.867 154.4 154.8 154.4 156.4C154.667 157.733 153.867 159.467 152 161.6C150.133 163.467 148.267 165.2 146.4 166.8C136.533 174.533 125.467 180.267 113.2 184C100.933 187.467 88.4 188.933 75.6 188.4C62.2667 187.867 49.7333 185.467 38 181.2C26.5333 176.667 18 169.333 12.4 159.2C7.86667 151.2 4.8 142.933 3.2 134.4C1.6 125.867 0.933333 117.467 1.2 109.2C1.73333 100.667 3.2 92.6667 5.6 85.2C8 77.4667 11.0667 70.6667 14.8 64.8C20.4 56.2667 27.4667 48.8 36 42.4C44.8 35.7333 54.4 30.2667 64.8 26C75.2 21.7333 86.1333 18.6666 97.6 16.8C109.067 14.6667 120.533 13.7333 132 14C143.467 14.2667 154.4 15.7333 164.8 18.4C175.2 20.8 184.667 24.5333 193.2 29.6C211.6 40.5333 224.933 55.4667 233.2 74.4C241.467 93.3333 242.267 116.133 235.6 142.8C241.467 136.133 248.4 127.2 256.4 116C264.4 104.8 272.8 93.2 281.6 81.2C290.4 69.2 299.333 57.4667 308.4 46C317.467 34.5333 325.867 25.0666 333.6 17.6C336.267 14.9333 340.133 14 345.2 14.8C350.267 15.6 355.067 17.4666 359.6 20.4C364.4 23.3333 368 27.2 370.4 32C373.067 36.8 373.2 42 370.8 47.6C366.8 56.6667 362 67.7333 356.4 80.8C351.067 93.8667 345.467 107.333 339.6 121.2C334 134.8 328.667 148 323.6 160.8C318.8 173.333 315.067 183.867 312.4 192.4C327.6 173.733 343.2 154.8 359.2 135.6C375.2 116.133 390.4 97.8667 404.8 80.8C419.2 63.7333 432 48.5333 443.2 35.2C454.667 21.6 463.333 11.2 469.2 3.99999C471.067 1.59999 474.533 0.79999 479.6 1.6C484.933 2.39999 489.867 4.39998 494.4 7.59999C499.2 10.8 502.8 14.8 505.2 19.6C507.6 24.4 506.933 29.6 503.2 35.2C495.467 47.4667 487.2 61.7333 478.4 78C469.6 94.2667 460.8 111.333 452 129.2C443.467 146.8 435.2 164.667 427.2 182.8C419.2 200.667 412.133 217.6 406 233.6C400.133 249.6 395.333 264 391.6 276.8C387.867 289.6 386 299.6 386 306.8C387.6 307.333 389.2 307.6 390.8 307.6C392.4 307.867 393.867 308 395.2 308C396.8 308 398.133 308 399.2 308C400.267 308.267 400.933 308.8 401.2 309.6C401.467 310.4 401.067 311.733 400 313.6C399.2 315.467 398 317.333 396.4 319.2C394.8 321.067 392.8 322.667 390.4 324C388.267 325.333 386 326 383.6 326C381.467 326 378.933 325.2 376 323.6C373.067 322 370.133 319.467 367.2 316C364.533 312.8 362.267 308.667 360.4 303.6C358.533 298.533 357.467 292.533 357.2 285.6C356.933 272.8 358.533 258.667 362 243.2C365.467 227.467 370.133 211.067 376 194C381.867 176.933 388.667 159.867 396.4 142.8C404.133 125.467 412.133 108.8 420.4 92.8C404.133 113.867 388.667 134.133 374 153.6C359.333 172.8 346 190.533 334 206.8C322 222.8 311.733 236.8 303.2 248.8C294.667 260.8 288.267 270 284 276.4C281.067 279.333 278.133 280 275.2 278.4C272.267 276.8 269.6 274.267 267.2 270.8C265.067 267.067 263.2 262.8 261.6 258C260.267 253.2 259.6 249.067 259.6 245.6C259.6 237.6 261.067 227.067 264 214C267.2 200.933 271.333 186.533 276.4 170.8C281.467 155.067 287.2 138.667 293.6 121.6C300 104.533 306.667 87.7333 313.6 71.2C308.267 78.6666 301.2 89.0666 292.4 102.4C283.6 115.733 273.6 130.533 262.4 146.8C251.467 162.8 239.467 179.333 226.4 196.4C213.333 213.467 199.867 229.6 186 244.8C172.4 259.733 158.533 272.933 144.4 284.4C130.267 295.6 116.533 303.467 103.2 308C97.0667 310.133 90.9333 311.467 84.8 312C78.9333 312.8 73.3333 312.8 68 312C62.9333 311.467 58.5333 310.133 54.8 308C51.0667 306.133 48.4 303.333 46.8 299.6C46.5333 298.8 46.2667 297.733 46 296.4C46 295.333 46.2667 294.4 46.8 293.6C47.3333 292.8 48.4 292.267 50 292C51.6 292 54 292.533 57.2 293.6C63.3333 295.733 71.4667 293.467 81.6 286.8C92 279.867 103.067 270.4 114.8 258.4C126.8 246.133 138.8 232 150.8 216C162.8 200 173.467 183.733 182.8 167.2C192.133 150.667 199.467 134.667 204.8 119.2C210.133 103.733 212.133 90.4 210.8 79.2C209.2 74.1333 205.467 69.7333 199.6 66C193.733 62.2667 186.533 59.3333 178 57.2C169.467 55.0667 159.867 53.8667 149.2 53.6C138.8 53.0667 128.133 53.4666 117.2 54.8C108.4 55.8666 99.0667 58 89.2 61.2C79.6 64.4 70.4 68.2667 61.6 72.8C52.8 77.3333 44.9333 82.4 38 88C31.3333 93.6 26.6667 99.4667 24 105.6C21.3333 111.467 21.2 117.6 23.6 124C26 130.133 32 136.133 41.6 142C44.2667 143.6 48.2667 145.6 53.6 148C59.2 150.133 66 152 74 153.6C82.2667 155.2 91.6 156.267 102 156.8C112.4 157.333 123.867 156.667 136.4 154.8Z" fill="white"/>
</svg>
